<svg width="166" height="24" viewBox="0 0 166 24" fill="none" xmlns="http://www.w3.org/2000/svg">
<path d="M10.6818 11.45C10.3218 11.45 10.0618 11.37 9.90176 11.21C9.74177 11.05 9.49177 10.71 9.15176 10.19L5.49177 4.61001C5.37177 4.41001 5.23177 4.28001 5.07177 4.22001C4.91177 4.14001 4.75177 4.10001 4.59177 4.10001H4.08177C3.82177 4.10001 3.62177 4.18001 3.48177 4.34001C3.36177 4.48001 3.30177 4.71001 3.30177 5.03001V20.3H3.60177V5.03001C3.60177 4.87001 3.63177 4.73001 3.69177 4.61001C3.75177 4.47001 3.88177 4.40001 4.08177 4.40001H4.53176C4.67176 4.40001 4.79177 4.42001 4.89177 4.46001C5.01177 4.50001 5.13177 4.62001 5.25177 4.82001L8.91177 10.34C9.27177 10.88 9.54177 11.25 9.72177 11.45C9.92177 11.65 10.2418 11.75 10.6818 11.75C11.1218 11.75 11.4318 11.65 11.6118 11.45C11.8118 11.25 12.0918 10.88 12.4518 10.34L16.1118 4.82001C16.2318 4.62001 16.3418 4.50001 16.4418 4.46001C16.5418 4.42001 16.6618 4.40001 16.8018 4.40001H17.2518C17.4518 4.40001 17.5818 4.47001 17.6418 4.61001C17.7218 4.73001 17.7618 4.87001 17.7618 5.03001V20.3H18.0618V5.03001C18.0618 4.71001 17.9918 4.48001 17.8518 4.34001C17.7318 4.18001 17.5318 4.10001 17.2518 4.10001H16.7418C16.5818 4.10001 16.4218 4.14001 16.2618 4.22001C16.1218 4.28001 15.9918 4.41001 15.8718 4.61001L12.2118 10.19C11.8718 10.71 11.6218 11.05 11.4618 11.21C11.3018 11.37 11.0418 11.45 10.6818 11.45ZM5.67177 23H1.20177C0.821765 23 0.541765 22.92 0.361765 22.76C0.201765 22.58 0.121765 22.3 0.121765 21.92V2.48001C0.121765 2.10001 0.201765 1.83001 0.361765 1.67001C0.541765 1.49001 0.821765 1.40001 1.20177 1.40001H6.03176C6.35177 1.40001 6.61177 1.47001 6.81177 1.61001C7.03177 1.75001 7.23177 1.98001 7.41177 2.30001L10.1118 7.19001C10.2118 7.37001 10.2918 7.50001 10.3518 7.58001C10.4318 7.66001 10.5318 7.70001 10.6518 7.70001H10.9218C11.0418 7.70001 11.1318 7.66001 11.1918 7.58001C11.2718 7.50001 11.3618 7.37001 11.4618 7.19001L14.1318 2.30001C14.3118 1.98001 14.5018 1.75001 14.7018 1.61001C14.9218 1.47001 15.1918 1.40001 15.5118 1.40001H20.3718C20.7518 1.40001 21.0218 1.49001 21.1818 1.67001C21.3618 1.83001 21.4518 2.10001 21.4518 2.48001V21.92C21.4518 22.3 21.3618 22.58 21.1818 22.76C21.0218 22.92 20.7518 23 20.3718 23H15.7518C15.3718 23 15.0918 22.92 14.9118 22.76C14.7518 22.58 14.6718 22.3 14.6718 21.92V11.36L12.9018 14.63C12.7218 14.97 12.5018 15.22 12.2418 15.38C12.0018 15.52 11.6918 15.59 11.3118 15.59H10.1118C9.73177 15.59 9.41177 15.52 9.15176 15.38C8.91176 15.22 8.70176 14.97 8.52176 14.63L6.75177 11.36V21.92C6.75177 22.3 6.66177 22.58 6.48177 22.76C6.32177 22.92 6.05177 23 5.67177 23Z" fill="#CB3C94"/>
<path d="M43.9707 17.33C43.9707 18.25 43.8308 19.09 43.5508 19.85C43.2908 20.59 42.8107 21.23 42.1107 21.77C41.4307 22.29 40.4907 22.7 39.2907 23C38.0907 23.3 36.5607 23.45 34.7007 23.45C32.8407 23.45 31.3108 23.3 30.1108 23C28.9108 22.7 27.9608 22.29 27.2607 21.77C26.5807 21.23 26.1007 20.59 25.8207 19.85C25.5607 19.09 25.4307 18.25 25.4307 17.33V2.48001C25.4307 2.10001 25.5107 1.83001 25.6707 1.67001C25.8507 1.49001 26.1307 1.40001 26.5107 1.40001H31.2207C31.6007 1.40001 31.8708 1.49001 32.0308 1.67001C32.2108 1.83001 32.3008 2.10001 32.3008 2.48001V16.16C32.3008 16.56 32.4508 16.9 32.7508 17.18C33.0508 17.44 33.7207 17.57 34.7607 17.57C35.8207 17.57 36.5008 17.44 36.8008 17.18C37.1008 16.9 37.2508 16.56 37.2508 16.16V2.48001C37.2508 2.10001 37.3307 1.83001 37.4907 1.67001C37.6707 1.49001 37.9507 1.40001 38.3307 1.40001H42.8908C43.2708 1.40001 43.5408 1.49001 43.7008 1.67001C43.8808 1.83001 43.9707 2.10001 43.9707 2.48001V17.33ZM28.7307 4.10001V16.61C28.7307 17.81 29.1407 18.79 29.9607 19.55C30.8007 20.29 32.3908 20.66 34.7308 20.66C37.0708 20.66 38.6608 20.29 39.5008 19.55C40.3408 18.79 40.7607 17.81 40.7607 16.61V4.10001H40.4608V16.61C40.4608 17.73 40.0607 18.64 39.2607 19.34C38.4607 20.02 36.9508 20.36 34.7308 20.36C32.5108 20.36 31.0008 20.02 30.2008 19.34C29.4208 18.64 29.0308 17.73 29.0308 16.61V4.10001H28.7307Z" fill="#CB3C94"/>
<path d="M57.9836 23H48.5036C48.1236 23 47.8436 22.92 47.6636 22.76C47.5036 22.58 47.4236 22.3 47.4236 21.92V18.41C47.4236 18.03 47.5036 17.76 47.6636 17.6C47.8436 17.42 48.1236 17.33 48.5036 17.33H56.5736C56.8336 17.33 57.0236 17.25 57.1436 17.09C57.2836 16.91 57.3536 16.7 57.3536 16.46C57.3536 16.12 57.2836 15.87 57.1436 15.71C57.0236 15.55 56.8336 15.46 56.5736 15.44L52.0736 14.81C50.6736 14.61 49.5436 14.15 48.6836 13.43C47.8436 12.71 47.4236 11.51 47.4236 9.83001V6.68001C47.4236 4.98001 47.9736 3.68001 49.0736 2.78001C50.1736 1.86001 51.6936 1.40001 53.6336 1.40001H62.0336C62.4136 1.40001 62.6836 1.49001 62.8436 1.67001C63.0236 1.83001 63.1136 2.10001 63.1136 2.48001V6.05001C63.1136 6.43001 63.0236 6.71001 62.8436 6.89001C62.6836 7.05001 62.4136 7.13001 62.0336 7.13001H55.0436C54.7836 7.13001 54.5836 7.22001 54.4436 7.40001C54.3036 7.56001 54.2336 7.77001 54.2336 8.03001C54.2336 8.29001 54.3036 8.51001 54.4436 8.69001C54.5836 8.87001 54.7836 8.97001 55.0436 8.99001L59.5136 9.59001C60.9136 9.79001 62.0436 10.25 62.9036 10.97C63.7636 11.69 64.1936 12.89 64.1936 14.57V17.72C64.1936 19.42 63.6336 20.73 62.5136 21.65C61.4136 22.55 59.9036 23 57.9836 23ZM60.4136 4.10001H53.7536C52.8336 4.10001 52.0936 4.36001 51.5336 4.88001C50.9736 5.38001 50.6936 6.03001 50.6936 6.83001V9.29001C50.6936 10.11 50.8536 10.68 51.1736 11C51.5136 11.3 51.9436 11.5 52.4636 11.6L58.7936 12.89C59.3536 13.01 59.7936 13.25 60.1136 13.61C60.4536 13.95 60.6236 14.59 60.6236 15.53V17.27C60.6236 18.07 60.3436 18.73 59.7836 19.25C59.2436 19.75 58.5136 20 57.5936 20H50.1236V20.3H57.5936C58.6136 20.3 59.4236 20.02 60.0236 19.46C60.6236 18.88 60.9236 18.15 60.9236 17.27V15.53C60.9236 14.49 60.7236 13.77 60.3236 13.37C59.9436 12.97 59.4536 12.71 58.8536 12.59L52.5236 11.3C52.0636 11.22 51.6936 11.04 51.4136 10.76C51.1336 10.48 50.9936 9.99001 50.9936 9.29001V6.83001C50.9936 6.13001 51.2436 5.55001 51.7436 5.09001C52.2436 4.63001 52.9136 4.40001 53.7536 4.40001H60.4136V4.10001Z" fill="#CB3C94"/>
<path d="M68.0753 23C67.6953 23 67.4153 22.92 67.2353 22.76C67.0753 22.58 66.9953 22.3 66.9953 21.92V18.35C66.9953 17.97 67.0753 17.7 67.2353 17.54C67.4153 17.36 67.6953 17.27 68.0753 17.27H71.0453V7.19001H68.0753C67.6953 7.19001 67.4153 7.11001 67.2353 6.95001C67.0753 6.77001 66.9953 6.49001 66.9953 6.11001V2.48001C66.9953 2.10001 67.0753 1.83001 67.2353 1.67001C67.4153 1.49001 67.6953 1.40001 68.0753 1.40001H80.8553C81.2353 1.40001 81.5053 1.49001 81.6653 1.67001C81.8453 1.83001 81.9353 2.10001 81.9353 2.48001V6.11001C81.9353 6.49001 81.8453 6.77001 81.6653 6.95001C81.5053 7.11001 81.2353 7.19001 80.8553 7.19001H77.9453V17.27H80.8553C81.2353 17.27 81.5053 17.36 81.6653 17.54C81.8453 17.7 81.9353 17.97 81.9353 18.35V21.92C81.9353 22.3 81.8453 22.58 81.6653 22.76C81.5053 22.92 81.2353 23 80.8553 23H68.0753ZM79.2353 20.3V20H74.6453V4.40001H79.2353V4.10001H69.6953V4.40001H74.3453V20H69.6953V20.3H79.2353Z" fill="#CB3C94"/>
<path d="M100.009 23H92.6893C90.1893 23 88.3293 22.5 87.1093 21.5C85.9093 20.5 85.3093 18.96 85.3093 16.88V7.55001C85.3093 5.47001 85.9093 3.93001 87.1093 2.93001C88.3293 1.91001 90.1893 1.40001 92.6893 1.40001H100.009C100.389 1.40001 100.659 1.49001 100.819 1.67001C100.999 1.83001 101.089 2.10001 101.089 2.48001V6.11001C101.089 6.49001 100.999 6.77001 100.819 6.95001C100.659 7.11001 100.389 7.19001 100.009 7.19001H93.9793C93.3593 7.19001 92.8993 7.32001 92.5993 7.58001C92.2993 7.82001 92.1493 8.19001 92.1493 8.69001V15.83C92.1493 16.33 92.2993 16.7 92.5993 16.94C92.8993 17.16 93.3593 17.27 93.9793 17.27H100.009C100.389 17.27 100.659 17.36 100.819 17.54C100.999 17.7 101.089 17.97 101.089 18.35V21.92C101.089 22.3 100.999 22.58 100.819 22.76C100.659 22.92 100.389 23 100.009 23ZM98.3593 20H93.3493C91.5493 20 90.3493 19.73 89.7493 19.19C89.1493 18.65 88.8493 17.73 88.8493 16.43V8.03001C88.8493 6.71001 89.1593 5.78001 89.7793 5.24001C90.3993 4.68001 91.5893 4.40001 93.3493 4.40001H98.3593V4.10001H93.3493C91.4293 4.10001 90.1493 4.40001 89.5093 5.00001C88.8693 5.60001 88.5493 6.61001 88.5493 8.03001V16.43C88.5493 17.81 88.8593 18.8 89.4793 19.4C90.1193 20 91.4093 20.3 93.3493 20.3H98.3593V20Z" fill="#CB3C94"/>
<path d="M122.631 17.33C122.631 18.25 122.491 19.09 122.211 19.85C121.951 20.59 121.471 21.23 120.771 21.77C120.091 22.29 119.141 22.7 117.921 23C116.721 23.3 115.191 23.45 113.331 23.45C111.471 23.45 109.931 23.3 108.711 23C107.491 22.7 106.531 22.29 105.831 21.77C105.151 21.23 104.671 20.59 104.391 19.85C104.131 19.09 104.001 18.25 104.001 17.33V7.10001C104.001 6.18001 104.131 5.35001 104.391 4.61001C104.671 3.85001 105.151 3.20001 105.831 2.66001C106.531 2.12001 107.491 1.70001 108.711 1.40001C109.931 1.10001 111.471 0.950012 113.331 0.950012C115.191 0.950012 116.721 1.10001 117.921 1.40001C119.141 1.70001 120.091 2.12001 120.771 2.66001C121.471 3.20001 121.951 3.85001 122.211 4.61001C122.491 5.35001 122.631 6.18001 122.631 7.10001V17.33ZM119.361 16.64V7.79001C119.361 6.59001 118.931 5.62001 118.071 4.88001C117.211 4.12001 115.611 3.74001 113.271 3.74001C110.931 3.74001 109.341 4.12001 108.501 4.88001C107.661 5.62001 107.241 6.59001 107.241 7.79001V16.64C107.241 17.84 107.661 18.82 108.501 19.58C109.341 20.32 110.931 20.69 113.271 20.69C115.611 20.69 117.211 20.32 118.071 19.58C118.931 18.82 119.361 17.84 119.361 16.64ZM107.541 16.64V7.79001C107.541 6.67001 107.941 5.77001 108.741 5.09001C109.541 4.39001 111.051 4.04001 113.271 4.04001C115.491 4.04001 117.011 4.39001 117.831 5.09001C118.651 5.77001 119.061 6.67001 119.061 7.79001V16.64C119.061 17.76 118.651 18.67 117.831 19.37C117.011 20.05 115.491 20.39 113.271 20.39C111.051 20.39 109.541 20.05 108.741 19.37C107.941 18.67 107.541 17.76 107.541 16.64ZM110.811 16.25C110.811 16.65 110.961 16.99 111.261 17.27C111.561 17.53 112.251 17.66 113.331 17.66C114.411 17.66 115.101 17.53 115.401 17.27C115.701 16.99 115.851 16.65 115.851 16.25V8.18001C115.851 7.80001 115.701 7.48001 115.401 7.22001C115.101 6.94001 114.411 6.80001 113.331 6.80001C112.251 6.80001 111.561 6.94001 111.261 7.22001C110.961 7.48001 110.811 7.80001 110.811 8.18001V16.25Z" fill="#CB3C94"/>
<path d="M144.75 17.33C144.75 18.25 144.61 19.09 144.33 19.85C144.07 20.59 143.59 21.23 142.89 21.77C142.21 22.29 141.26 22.7 140.04 23C138.84 23.3 137.31 23.45 135.45 23.45C133.59 23.45 132.05 23.3 130.83 23C129.61 22.7 128.65 22.29 127.95 21.77C127.27 21.23 126.79 20.59 126.51 19.85C126.25 19.09 126.12 18.25 126.12 17.33V7.10001C126.12 6.18001 126.25 5.35001 126.51 4.61001C126.79 3.85001 127.27 3.20001 127.95 2.66001C128.65 2.12001 129.61 1.70001 130.83 1.40001C132.05 1.10001 133.59 0.950012 135.45 0.950012C137.31 0.950012 138.84 1.10001 140.04 1.40001C141.26 1.70001 142.21 2.12001 142.89 2.66001C143.59 3.20001 144.07 3.85001 144.33 4.61001C144.61 5.35001 144.75 6.18001 144.75 7.10001V17.33ZM141.48 16.64V7.79001C141.48 6.59001 141.05 5.62001 140.19 4.88001C139.33 4.12001 137.73 3.74001 135.39 3.74001C133.05 3.74001 131.46 4.12001 130.62 4.88001C129.78 5.62001 129.36 6.59001 129.36 7.79001V16.64C129.36 17.84 129.78 18.82 130.62 19.58C131.46 20.32 133.05 20.69 135.39 20.69C137.73 20.69 139.33 20.32 140.19 19.58C141.05 18.82 141.48 17.84 141.48 16.64ZM129.66 16.64V7.79001C129.66 6.67001 130.06 5.77001 130.86 5.09001C131.66 4.39001 133.17 4.04001 135.39 4.04001C137.61 4.04001 139.13 4.39001 139.95 5.09001C140.77 5.77001 141.18 6.67001 141.18 7.79001V16.64C141.18 17.76 140.77 18.67 139.95 19.37C139.13 20.05 137.61 20.39 135.39 20.39C133.17 20.39 131.66 20.05 130.86 19.37C130.06 18.67 129.66 17.76 129.66 16.64ZM132.93 16.25C132.93 16.65 133.08 16.99 133.38 17.27C133.68 17.53 134.37 17.66 135.45 17.66C136.53 17.66 137.22 17.53 137.52 17.27C137.82 16.99 137.97 16.65 137.97 16.25V8.18001C137.97 7.80001 137.82 7.48001 137.52 7.22001C137.22 6.94001 136.53 6.80001 135.45 6.80001C134.37 6.80001 133.68 6.94001 133.38 7.22001C133.08 7.48001 132.93 7.80001 132.93 8.18001V16.25Z" fill="#CB3C94"/>
<path d="M154.299 23H149.649C149.269 23 148.989 22.92 148.809 22.76C148.649 22.58 148.569 22.3 148.569 21.92V2.48001C148.569 2.10001 148.649 1.83001 148.809 1.67001C148.989 1.49001 149.269 1.40001 149.649 1.40001H158.829C161.549 1.40001 163.409 1.94001 164.409 3.02001C165.409 4.10001 165.909 5.51001 165.909 7.25001V11.09C165.909 12.83 165.409 14.24 164.409 15.32C163.409 16.4 161.549 16.94 158.829 16.94H155.379V21.92C155.379 22.3 155.289 22.58 155.109 22.76C154.949 22.92 154.679 23 154.299 23ZM158.409 14.39C159.349 14.39 160.109 14.29 160.689 14.09C161.289 13.89 161.749 13.62 162.069 13.28C162.389 12.92 162.609 12.5 162.729 12.02C162.849 11.52 162.909 10.98 162.909 10.4V8.18001C162.909 7.60001 162.849 7.06001 162.729 6.56001C162.609 6.06001 162.389 5.63001 162.069 5.27001C161.749 4.91001 161.289 4.63001 160.689 4.43001C160.109 4.21001 159.349 4.10001 158.409 4.10001H151.929V20.3H152.229V14.39H158.409ZM152.229 14.09V4.40001H158.409C159.289 4.40001 159.999 4.50001 160.539 4.70001C161.099 4.88001 161.529 5.14001 161.829 5.48001C162.129 5.82001 162.329 6.22001 162.429 6.68001C162.549 7.14001 162.609 7.64001 162.609 8.18001V10.4C162.609 10.94 162.549 11.44 162.429 11.9C162.329 12.34 162.129 12.73 161.829 13.07C161.529 13.39 161.099 13.64 160.539 13.82C159.999 14 159.289 14.09 158.409 14.09H152.229ZM155.319 7.01001V11.54H158.019C158.599 11.54 158.979 11.39 159.159 11.09C159.339 10.79 159.429 10.45 159.429 10.07V8.48001C159.429 8.10001 159.339 7.76001 159.159 7.46001C158.979 7.16001 158.599 7.01001 158.019 7.01001H155.319Z" fill="#CB3C94"/>
</svg>
